<svg xmlns="http://www.w3.org/2000/svg" width="165" height="19" viewBox="0 0 164.562 18.969"><path d="M7.246 3.288a1.81 1.81 0 0 1 2.051 1.858 1.89 1.89 0 0 1-.5 1.287l1.43.8c.67-.49 1.06-1.272 1.05-2.1 0-2.048-1.526-3.6-4.627-3.6C3 1.543-.004 3.95-.004 7.952c0 3.764 2.838 5.885 6.105 5.885 2.9 0 4.865-1.406 5.6-3.884l-1.48-.643c-.644 1.548-1.55 2.43-2.862 2.43-1.765 0-3.053-1.3-3.053-4.217.006-2.424 1.127-4.235 2.94-4.235zm12.14 10.555c3.553 0 6.51-2.43 6.51-6.147S22.94 1.55 19.387 1.55s-6.51 2.43-6.51 6.147 2.957 6.147 6.51 6.147zm0-10.722c1.526 0 2.122 1.215 2.122 4.575s-.6 4.574-2.122 4.574-2.123-1.215-2.123-4.574.592-4.575 2.123-4.575zm20.56 1.358c-.3-1.763-1.48-2.93-3.768-2.93a4.1 4.1 0 0 0-3.936 2.835l-.1-2.6h-4.05V13.6h4.15V7.886c0-2.192.81-3.5 1.98-3.5 1.145 0 1.67.786 1.67 2v7.22h4.15v-5.72c0-2.192.81-3.5 1.98-3.5 1.144 0 1.67.786 1.67 2v7.22h4.15v-7.9c0-2.263-1.12-4.145-3.864-4.145a4.3 4.3 0 0 0-4.031 2.929zm15.028 3.145c0-2.12 1.025-3.67 2.6-3.67 1.55 0 2.457 1.1 2.457 3.788 0 2.883-.93 4.146-2.457 4.146-1.455 0-2.6-1.573-2.6-3.48v-.786zm0 4.17c.768 1.292 2.17 2.073 3.672 2.05 3.1 0 5.8-2.383 5.8-6.41 0-4-2.743-5.885-5.32-5.885a4.3 4.3 0 0 0-4.149 2.835l-.1-2.6h-4.054v16.94h4.15V11.79zM70.79 4.837l-.1-3.05h-4.054v11.817h4.15v-3.93c0-3.24 1.884-6.1 3.386-6.1a1.04 1.04 0 0 1 1.169 1.048c-.032.418-.2.817-.453 1.144l1.74.93a3.74 3.74 0 0 0 .858-2.287c.038-.77-.25-1.52-.797-2.064s-1.296-.834-2.065-.795c-2 .001-3.24 1.454-3.835 3.29zM90.275 9.96l-1.48-.62c-.62 1.548-1.5 2.406-3.124 2.406-1.693 0-3.03-.977-3.1-3.86h7.8c0-3.716-1.955-6.337-5.724-6.337a6.09 6.09 0 0 0-4.587 1.776C78.85 4.535 78.204 6.2 78.28 7.9c0 3.812 2.862 5.933 6.3 5.933 2.975 0 4.975-1.406 5.694-3.887zm-5.652-6.814c1.383 0 1.67 1.334 1.645 3.217h-3.65c.143-2.335.787-3.217 2.004-3.217zm21.228 4.718v.57c0 1.6-.882 3-2.123 3a1.28 1.28 0 0 1-1.407-1.358c0-1.072.716-1.668 2.266-1.977zm0-1.478l-1.932.334c-2.766.5-5.628 1.334-5.628 4 0 2.026 1.693 3.122 3.625 3.122a3.9 3.9 0 0 0 4.006-2.574l.24 2.335h3.795l.024-7.17c.024-3.335-1.884-4.884-5.867-4.884-3.363 0-5.056 1.477-5.056 3.24a2.35 2.35 0 0 0 .954 1.93l1.932-.977c-.335-.266-.53-.672-.525-1.1 0-.834.86-1.263 2.075-1.263 1.693 0 2.36.8 2.36 2.145v.857zm13.62-.953c0 1.6-.453 2.407-1.55 2.407-1.05 0-1.526-.8-1.526-2.407s.477-2.43 1.526-2.43c1.098 0 1.55.834 1.55 2.43zm5.723 9.006c0-2.382-1.812-3.693-4.65-3.693h-4.436c-.253.048-.514-.017-.715-.177s-.323-.4-.334-.657a1.13 1.13 0 0 1 .644-.857 9.09 9.09 0 0 0 2.217.262c3.53 0 5.533-1.716 5.533-3.884.005-.985-.433-1.92-1.192-2.55a2.32 2.32 0 0 1 1.526-1.072c.186-.02.372.044.51.17a.65.65 0 0 1 .207.496 1.68 1.68 0 0 1-.239.762l1.574.69c.463-.458.714-1.088.692-1.74.036-.613-.2-1.21-.647-1.634A2.08 2.08 0 0 0 124.217 0c-1.386.083-2.634.863-3.315 2.073-.95-.366-1.963-.544-2.982-.524-3.505 0-5.485 1.715-5.485 3.883.032 1.404.88 2.66 2.17 3.217a3.31 3.31 0 0 0-2.432 2.883c-.026 1.333.965 2.467 2.29 2.62-1.98.1-3.028 1.025-3.028 2.073 0 2 3 2.74 6.367 2.74 3.84 0 7.393-1.334 7.393-4.527zm-5.366.167c1.43 0 1.98.333 1.98 1.072 0 1.048-1.717 1.572-3.864 1.572-2.408 0-3.887-.548-3.887-1.572a1.23 1.23 0 0 1 1.1-1.072h4.674zm12.833-.762c3.554 0 6.51-2.43 6.51-6.147s-2.957-6.147-6.51-6.147-6.51 2.43-6.51 6.147 2.958 6.147 6.51 6.147zm0-10.722c1.527 0 2.123 1.215 2.123 4.575s-.6 4.574-2.123 4.574-2.122-1.215-2.122-4.574.596-4.575 2.122-4.575zm12.857 1.716l-.1-3.05h-4.054v11.817h4.15v-3.93c0-3.24 1.884-6.1 3.386-6.1a1.04 1.04 0 0 1 1.169 1.048c-.032.418-.2.817-.453 1.144l1.74.93a3.74 3.74 0 0 0 .858-2.287c.038-.77-.25-1.52-.796-2.064s-1.295-.834-2.065-.795c-1.998.001-3.24 1.454-3.836 3.29zm14.93 3.026v.57c0 1.6-.882 3-2.123 3a1.28 1.28 0 0 1-1.407-1.358c0-1.072.716-1.668 2.266-1.977zm0-1.478l-1.932.334c-2.766.5-5.628 1.334-5.628 4 0 2.026 1.693 3.122 3.625 3.122a3.9 3.9 0 0 0 4.007-2.574l.238 2.335h3.797l.024-7.17c.024-3.335-1.884-4.884-5.867-4.884-3.363 0-5.056 1.477-5.056 3.24a2.35 2.35 0 0 0 .954 1.93l1.932-.977a1.39 1.39 0 0 1-.525-1.1c0-.834.86-1.263 2.075-1.263 1.693 0 2.36.8 2.36 2.145v.857z" fill="#e83f4f" fill-rule="evenodd"/></svg>