<svg xmlns="http://www.w3.org/2000/svg" viewBox="0 0 251.485 122.491"><path d="M0 76.355V1.076h32.888c15.477 0 28.052 5.377 28.052 18.4 0 11.4-9.458 17.1-19.776 17.96v.215c10.64.538 22.893 5.162 22.893 18.4 0 14.84-13.328 20.325-29.77 20.325H0zm19.67-43.232h8.383c9.028 0 13.327-3.227 13.327-11.507s-4.3-11.292-13.327-11.292H19.67v22.8zm0 9.14v24.842h9.136c10.318 0 15.584-3 15.584-12.152 0-9.034-5.267-12.7-15.584-12.7H19.67zm153.366-31.5H145.52v-9.68h74.697v9.68h-27.514v65.6h-19.67v-65.6zm74.6 65.602h-19.668V1.076h19.668v75.28zM108.443 0C86.517 0 68.568 16.13 68.568 38.715s17.95 38.715 39.874 38.715 39.874-16.132 39.874-38.715S130.368 0 108.443 0zm9.96 65.172c.756 2.007-2.095 3.74-9.443 3.674l-.516-.001-.516.001c-7.348.065-10.2-1.667-9.443-3.674.943-2.503 3.05-7.013 3.128-9.015.182-4.664-6.435-9.522-6.437-20.25a15.03 15.03 0 0 1 7.69-12.958c.297-.164.48-.476.482-.816l.006-3.692c-.001-.158-.116-.293-.272-.32-3.167-.532-5.296-1.52-5.296-2.65v-3.82c0-1.694 4.772-3.067 10.658-3.067S119.1 9.956 119.1 11.65v3.82c0 1.13-2.128 2.12-5.296 2.65-.156.026-.27.16-.272.32l.006 3.692a.93.93 0 0 0 .482.816 15.03 15.03 0 0 1 7.69 12.958c-.002 10.73-6.62 15.587-6.437 20.25.078 2.002 2.185 6.5 3.128 9.015zM9.738 108.95v13.022H.25V85.655H16.8c8.452 0 14.674 3.942 14.674 11.62 0 7.73-6.222 11.674-14.674 11.674H9.738zm3.422-4.462c6.118 0 8.504-2.18 8.504-7.212s-2.385-7.16-8.504-7.16H9.738v14.372h3.422zm45.322 17.484h-9.5V85.655h17.785c7.466 0 13.845 2.802 13.845 9.805 0 5.967-5.496 8.924-11.77 9.08v.104c4.5.26 7.622 2.127 9.23 6.485l1.607 4.358a21.93 21.93 0 0 0 3.474 6.485H72.43a26.98 26.98 0 0 1-2.437-5.603l-1.97-5.707c-1.037-3-2.5-3.994-5.704-3.994h-3.837v15.304zm0-19.767h4.614c5.082 0 7.57-2.024 7.57-6.07 0-3.735-2.5-6.02-7.57-6.02h-4.614v12.1zm58.698-17.07c10.578 0 19.237 7.782 19.237 18.678s-8.66 18.677-19.237 18.677-19.236-7.782-19.236-18.677 8.66-18.678 19.236-18.678zm0 33.3c6.17 0 8.607-5.188 8.607-14.63s-2.437-14.632-8.607-14.632-8.607 5.188-8.607 14.632 2.437 14.63 8.607 14.63zm66.84-32.8h10.9v36.317h-9.28V93.645l-11.252 28.328h-3.318l-10.992-28.328v28.328h-5.548V85.655h12.03l8.504 21.895zm48.227-.5c10.578 0 19.237 7.782 19.237 18.678s-8.66 18.677-19.237 18.677-19.236-7.782-19.236-18.677 8.66-18.678 19.236-18.678zm0 33.3c6.17 0 8.608-5.188 8.608-14.63s-2.437-14.632-8.608-14.632-8.607 5.188-8.607 14.632 2.437 14.63 8.607 14.63z" fill="#fff162"/></svg>