<svg xmlns="http://www.w3.org/2000/svg" width="92" height="12" viewBox="0 0 91.812 11.594"><path d="M6.073 7.698c0 1.358-.658 2.35-1.667 2.35-.994 0-1.575-.7-1.575-2.425 0-1.845.6-2.653 1.575-2.653 1.064.173 1.8 1.156 1.667 2.226v.5zm0-2.668a2.51 2.51 0 0 0-2.355-1.311A3.75 3.75 0 0 0 .002 7.791c-.093.98.234 1.95.9 2.675S2.506 11.6 3.49 11.59a2.54 2.54 0 0 0 2.584-1.815l.06 1.663h2.6V.013h-2.66V5.03zm11.76 4.07l-.948-.4a2.03 2.03 0 0 1-2 1.54c-1.086 0-1.942-.625-1.988-2.47h5c0-2.38-1.254-4.057-3.67-4.057a3.9 3.9 0 0 0-4.083 4.072 3.73 3.73 0 0 0 4.037 3.8c1.657.16 3.193-.884 3.652-2.485zm-3.624-4.36c.887 0 1.07.854 1.055 2.06h-2.34c.092-1.495.505-2.06 1.285-2.06zM29.04 7.698c0 1.358-.657 2.35-1.667 2.35-.993 0-1.574-.7-1.574-2.425 0-1.845.6-2.653 1.574-2.653 1.064.173 1.8 1.156 1.667 2.226v.5zm0-2.668a2.51 2.51 0 0 0-2.355-1.311 3.75 3.75 0 0 0-3.715 4.072 3.47 3.47 0 0 0 .898 2.675c.664.724 1.605 1.133 2.588 1.125a2.54 2.54 0 0 0 2.584-1.815l.06 1.663h2.6V.013h-2.66V5.03zM40.8 9.1l-.948-.4c-.227.917-1.056 1.555-2 1.54-1.086 0-1.942-.625-1.988-2.47h5c0-2.38-1.254-4.057-3.67-4.057a3.9 3.9 0 0 0-4.082 4.072 3.73 3.73 0 0 0 4.037 3.8c1.657.16 3.192-.885 3.65-2.485zm-3.624-4.36c.887 0 1.07.854 1.055 2.06h-2.34c.09-1.495.504-2.06 1.284-2.06zm7.967.152c.964-.025 1.888.4 2.508 1.13l.688-1.113a4.24 4.24 0 0 0-3.076-1.189c-1.942 0-3.287 1.037-3.287 2.623 0 1.1.5 1.952 2.263 2.364l1.223.3c.795.183 1.055.32 1.055.747 0 .518-.6.67-1.3.67-1.085 0-2.113-.487-2.8-1.327l-.856.885a4.45 4.45 0 0 0 3.67 1.616c2 0 3.41-1.052 3.41-2.73 0-1.31-.734-1.89-2.186-2.287l-1.116-.305c-.918-.244-1.24-.38-1.24-.763s.386-.61 1.044-.61zm8.976-.06a1.16 1.16 0 0 1 1.315 1.19c0 .305-.115.6-.322.823l.918.52a1.64 1.64 0 0 0 .673-1.342c0-1.312-.98-2.3-2.967-2.3-1.122-.07-2.223.334-3.034 1.112S49.443 6.697 49.47 7.82a3.68 3.68 0 0 0 3.915 3.767c1.64.142 3.148-.902 3.593-2.486l-.948-.41c-.2.86-.95 1.49-1.835 1.555-1.132 0-1.957-.84-1.957-2.7 0-1.556.718-2.715 1.88-2.715zm7.783 6.756a3.94 3.94 0 0 0 3.704-4.09 3.94 3.94 0 0 0-4.016-3.784 3.94 3.94 0 0 0-3.863 3.94c.002 1.086.45 2.122 1.24 2.866s1.85 1.13 2.935 1.068zm0-6.862c.978 0 1.36.777 1.36 2.928s-.383 2.928-1.36 2.928-1.36-.778-1.36-2.928.382-2.928 1.36-2.928zm5.58-.854v7.564h2.66v-3.66c0-1.4.58-2.242 1.345-2.242.326-.007.637.135.846.385a1.07 1.07 0 0 1 .228.902v4.62h2.66V6.377a2.37 2.37 0 0 0-2.495-2.658c-1.165-.022-2.21.712-2.584 1.815l-.06-1.662h-2.6zm8.716 1.235h1.1l-.03 3.812a2.46 2.46 0 0 0 .722 1.975c.524.517 1.253.772 1.985.693a2.79 2.79 0 0 0 3.028-2.9l-1.07-.138c-.03 1.1-.428 1.6-1.13 1.6a.89.89 0 0 1-.872-1.068V5.1h2.434l.077-1.235H79.93v-2.47L77.3 2.51v1.357h-1.1V5.1zm11.438 6.48a3.94 3.94 0 0 0 3.704-4.09 3.94 3.94 0 0 0-4.016-3.784 3.94 3.94 0 0 0-3.863 3.94c.002 1.086.45 2.122 1.24 2.866s1.85 1.13 2.935 1.068zm0-6.862c.978 0 1.36.777 1.36 2.928s-.383 2.928-1.36 2.928-1.36-.778-1.36-2.928.387-2.928 1.36-2.928z" fill="#a6417e" fill-rule="evenodd"/></svg>