<svg xmlns="http://www.w3.org/2000/svg" width="232" height="15" viewBox="0 0 231.656 14.719"><path d="M7.6 5.587c-.154-1.182-1.232-2.02-2.416-1.876-1.147-.01-2.168.723-2.523 1.814L2.6 3.863H0v7.562h2.66v-3.66c0-1.4.52-2.242 1.27-2.242A1.07 1.07 0 0 1 5 6.804v4.62h2.66v-3.66c0-1.4.52-2.242 1.27-2.242A1.07 1.07 0 0 1 10 6.804v4.62h2.66v-5.06c.1-.696-.136-1.396-.615-1.91s-1.162-.786-1.862-.745A2.76 2.76 0 0 0 7.6 5.587zm11.208 2.165v.366a1.71 1.71 0 0 1-1.361 1.921.82.82 0 0 1-.9-.869c0-.686.46-1.067 1.453-1.266zm0-.945l-1.24.213c-1.774.32-3.61.854-3.61 2.562.02.583.282 1.13.723 1.5s1.022.558 1.6.5a2.5 2.5 0 0 0 2.569-1.647l.155 1.5h2.43l.015-4.6c.015-2.135-1.208-3.126-3.76-3.126-2.156 0-3.242.945-3.242 2.074a1.5 1.5 0 0 0 .612 1.235l1.24-.625a.89.89 0 0 1-.336-.7c0-.534.55-.808 1.33-.808.395-.078.803.035 1.102.305s.45.666.412 1.066v.55zm4.51-4.392H26v-2.4h-2.7v2.4zm2.676 1.45h-2.658v7.56h2.66V3.863zm4.893 1.022c.964-.025 1.887.4 2.508 1.128l.688-1.113a4.24 4.24 0 0 0-3.074-1.189c-1.942 0-3.288 1.037-3.288 2.623 0 1.1.5 1.952 2.263 2.364l1.223.3c.8.183 1.055.32 1.055.747 0 .52-.6.67-1.3.67-1.085 0-2.113-.487-2.8-1.327l-.856.885a4.45 4.45 0 0 0 3.67 1.616c2 0 3.4-1.052 3.4-2.73 0-1.31-.734-1.89-2.187-2.287l-1.116-.305c-.917-.244-1.24-.38-1.24-.763s.386-.61 1.044-.61zm14.68 2.806c0 1.357-.657 2.348-1.667 2.348-.994 0-1.575-.7-1.575-2.425 0-1.845.6-2.653 1.575-2.653 1.063.174 1.8 1.157 1.667 2.226v.5zm0-2.67a2.51 2.51 0 0 0-2.355-1.311 3.75 3.75 0 0 0-3.716 4.072c-.093.98.234 1.95.898 2.675s1.605 1.133 2.588 1.125a2.54 2.54 0 0 0 2.584-1.815l.064 1.656h2.6V.005h-2.662v5.02zm11.76 4.07l-.948-.4a2.03 2.03 0 0 1-2 1.54c-1.086 0-1.942-.625-1.988-2.47h5c0-2.38-1.254-4.056-3.67-4.056a3.9 3.9 0 0 0-4.084 4.075 3.73 3.73 0 0 0 4.037 3.8 3.45 3.45 0 0 0 3.653-2.489zm-3.624-4.36c.887 0 1.07.854 1.055 2.06h-2.34c.092-1.495.504-2.06 1.284-2.06zm16.59-3.98H64.3l-.7 5.688h.637a2.28 2.28 0 0 1 1.682-.656 1.88 1.88 0 0 1 1.82 2.074c0 1.433-.7 2.47-2.2 2.47a1.52 1.52 0 0 1-1.682-1.357c-.012-.455.246-.873.657-1.067l-.78-.823c-.804.256-1.352 1-1.36 1.843 0 1.86 1.79 2.653 3.7 2.653 2.553 0 4.664-1.266 4.664-3.828 0-2.06-1.637-3.218-3.747-3.218-.732.006-1.453.177-2.1.5l.245-1.845h4.893zM71.716 6.1c0 3.446 1.912 5.5 4.7 5.5s4.71-2.043 4.71-5.5-1.91-5.5-4.71-5.5-4.7 2.043-4.7 5.5zm3.058 0c0-3.218.413-4.483 1.652-4.483s1.65 1.266 1.65 4.483-.413 4.483-1.65 4.483-1.652-1.265-1.652-4.483zm7.25 0c0 3.446 1.91 5.5 4.71 5.5s4.7-2.043 4.7-5.5S89.53.6 86.732.6s-4.71 2.043-4.71 5.5zm3.058 0c0-3.218.413-4.483 1.65-4.483s1.652 1.266 1.652 4.483-.413 4.483-1.652 4.483-1.65-1.265-1.65-4.483zm14.756 1.5c0-1.357.657-2.35 1.666-2.35.994 0 1.575.7 1.575 2.425 0 1.845-.6 2.653-1.575 2.653-1.063-.174-1.798-1.157-1.666-2.226v-.5zm0 2.67a2.69 2.69 0 0 0 2.355 1.312c1.05-.013 2.047-.462 2.75-1.24s1.054-1.814.964-2.86c.09-.962-.23-1.917-.877-2.633s-1.567-1.128-2.533-1.134a2.76 2.76 0 0 0-2.66 1.811l-.06-1.662h-2.6v10.843h2.66v-4.438zm10.138-4.453l-.06-1.952h-2.6v7.56h2.66V8.91c0-2.074 1.208-3.9 2.17-3.9.192-.025.384.035.528.164s.224.314.22.507a1.33 1.33 0 0 1-.29.732l1.116.595c.342-.413.536-.928.55-1.464a1.75 1.75 0 0 0-1.835-1.834 2.64 2.64 0 0 0-2.462 2.104zm8.976 5.764a3.94 3.94 0 0 0 3.704-4.09 3.94 3.94 0 0 0-4.016-3.784 3.94 3.94 0 0 0-3.863 3.94c.002 1.085.45 2.122 1.24 2.866s1.85 1.13 2.935 1.068zm0-6.862c.978 0 1.36.778 1.36 2.928s-.382 2.928-1.36 2.928-1.36-.778-1.36-2.928.382-2.93 1.36-2.93zm11.116 2.974c0 1.357-.657 2.348-1.667 2.348-.994 0-1.575-.7-1.575-2.425 0-1.845.6-2.653 1.575-2.653 1.063.174 1.8 1.157 1.667 2.226v.5zm0-2.67a2.51 2.51 0 0 0-2.355-1.311 3.75 3.75 0 0 0-2.75 1.222c-.706.773-1.056 1.807-.965 2.85-.093.98.233 1.95.898 2.675s1.605 1.133 2.588 1.125a2.54 2.54 0 0 0 2.584-1.815l.06 1.662h2.6V.005h-2.66v5.02zm12.218 6.4v-7.56h-2.66v3.662c0 1.4-.55 2.242-1.27 2.242a1.03 1.03 0 0 1-.994-1.281v-4.623h-2.66v5.062c0 1.45.643 2.653 2.4 2.653 1.144.032 2.172-.694 2.523-1.784l.06 1.632h2.6zm1.152-6.324h1.1l-.03 3.812a2.46 2.46 0 0 0 .722 1.976c.524.517 1.253.772 1.985.693a2.79 2.79 0 0 0 3.027-2.9l-1.07-.137c-.03 1.1-.428 1.6-1.132 1.6a.89.89 0 0 1-.871-1.067v-3.98h2.43l.076-1.235h-2.507V1.39l-2.63 1.113V3.86h-1.1v1.235zm11.437 6.48a3.94 3.94 0 0 0 3.705-4.09 3.94 3.94 0 0 0-4.016-3.785 3.94 3.94 0 0 0-3.863 3.941 3.95 3.95 0 0 0 4.169 3.934zm0-6.862c.98 0 1.36.778 1.36 2.928s-.382 2.928-1.36 2.928-1.36-.778-1.36-2.928.377-2.93 1.355-2.93zm8.456.168c.964-.025 1.887.4 2.508 1.128l.688-1.113a4.24 4.24 0 0 0-3.073-1.189c-1.942 0-3.288 1.037-3.288 2.623 0 1.1.5 1.952 2.263 2.364l1.224.3c.795.183 1.055.32 1.055.747 0 .52-.6.67-1.3.67-1.085 0-2.113-.487-2.8-1.327l-.857.885c.898 1.1 2.26 1.7 3.67 1.616 2 0 3.4-1.052 3.4-2.73 0-1.31-.734-1.89-2.187-2.287l-1.116-.305c-.917-.244-1.238-.38-1.238-.763s.38-.61 1.036-.61zm13.258-.06a1.16 1.16 0 0 1 1.315 1.189 1.21 1.21 0 0 1-.321.824l.917.518a1.64 1.64 0 0 0 .673-1.342c0-1.31-.98-2.3-2.967-2.3-1.122-.07-2.223.334-3.034 1.113s-1.258 1.862-1.232 2.987c-.026 1.033.383 2.03 1.128 2.746a3.68 3.68 0 0 0 2.787 1.021c1.64.142 3.148-.902 3.593-2.486l-.948-.412c-.21.86-.95 1.49-1.835 1.555-1.13 0-1.957-.84-1.957-2.7-.005-1.555.714-2.713 1.876-2.713zm7.783 6.756a3.94 3.94 0 0 0 3.704-4.09 3.94 3.94 0 0 0-4.016-3.784 3.94 3.94 0 0 0-3.863 3.94c.002 1.084.45 2.12 1.24 2.863s1.85 1.13 2.93 1.07zm0-6.862c.98 0 1.36.778 1.36 2.928s-.382 2.928-1.36 2.928S183 9.797 183 7.647s.377-2.93 1.356-2.93zm13.18.87c-.154-1.182-1.232-2.02-2.416-1.876-1.147-.01-2.17.724-2.523 1.815l-.06-1.662h-2.6v7.56h2.66v-3.66c0-1.4.52-2.242 1.27-2.242a1.07 1.07 0 0 1 1.07 1.281v4.62h2.66v-3.66c0-1.4.52-2.242 1.27-2.242a1.07 1.07 0 0 1 1.071 1.281v4.62h2.66v-5.06c.1-.696-.136-1.396-.615-1.91s-1.162-.786-1.862-.745a2.76 2.76 0 0 0-2.589 1.877zm15.5 2.165v.366a1.71 1.71 0 0 1-1.361 1.921c-.24.025-.48-.058-.652-.225a.82.82 0 0 1-.248-.644c0-.686.458-1.067 1.452-1.266zm0-.945l-1.24.213c-1.774.32-3.608.854-3.608 2.562.02.583.282 1.13.723 1.5s1.022.558 1.6.5a2.5 2.5 0 0 0 2.569-1.647l.15 1.49h2.43l.015-4.6c.015-2.135-1.208-3.126-3.76-3.126-2.156 0-3.242.945-3.242 2.074a1.5 1.5 0 0 0 .612 1.235l1.238-.625a.89.89 0 0 1-.336-.7c0-.534.55-.808 1.33-.808.395-.078.803.035 1.102.305s.45.666.412 1.066v.55zm3.593-1.708h1.1l-.03 3.812c-.068.733.197 1.46.72 1.976s1.253.772 1.985.693a2.79 2.79 0 0 0 3.028-2.9l-1.07-.137c-.03 1.1-.428 1.6-1.13 1.6a.89.89 0 0 1-.688-.327c-.17-.207-.236-.478-.184-.74v-3.98h2.432l.076-1.235h-2.508v-2.47l-2.63 1.113v1.357h-1.1v1.235zm14.1-5.093h-2.63l-.826 2.867h1.158zm.856 9.09l-.948-.4a2.03 2.03 0 0 1-2 1.54c-1.086 0-1.942-.625-1.988-2.47h5c0-2.38-1.254-4.056-3.67-4.056a3.9 3.9 0 0 0-4.082 4.072 3.73 3.73 0 0 0 4.036 3.8 3.45 3.45 0 0 0 3.646-2.488zm-3.624-4.36c.887 0 1.07.854 1.055 2.06h-2.345c.09-1.497.504-2.06 1.284-2.06z" fill="#a6417e" fill-rule="evenodd"/></svg>