<svg xmlns="http://www.w3.org/2000/svg" width="245" height="88" viewBox="0 0 244.844 87.187"><path d="M76.395 55.98H59.418V1.197H37.6L-.001 58.76v6.3h38.32v20.8h21.1v-20.8h16.977v-9.07zm-38.077 0h-25.1l25.1-38.94v38.94zM76.28 43.524c0 27.33 15.158 43.536 37.35 43.536s37.35-16.2 37.35-43.536S135.825-.013 113.625-.013 76.28 16.193 76.28 43.524zm24.253 0c0-25.517 3.274-35.555 13.1-35.555s13.1 10.038 13.1 35.555-3.274 35.554-13.1 35.554-13.1-10.037-13.1-35.554zM172.57 87.06L236.598-.013h-9.1L163.47 87.06h9.095zM155.1 22.118c0 12.094 8.6 22 18.917 22 10.43 0 18.917-9.916 18.917-22s-8.488-22.13-18.918-22.13c-10.306 0-18.916 10.038-18.916 22.13zm28.5 0c0 7.256-3.88 12.82-9.58 12.82-5.82 0-9.58-5.563-9.58-12.82 0-7.377 3.76-12.94 9.58-12.94 5.696 0 9.577 5.563 9.577 12.94zM207 65.17c0 12.093 8.6 22 18.917 22 10.428 0 18.917-9.917 18.917-22s-8.5-22.13-18.917-22.13C215.62 43.04 207 53.078 207 65.17zm28.5 0c0 7.256-3.88 12.82-9.58 12.82-5.82 0-9.58-5.563-9.58-12.82 0-7.377 3.76-12.94 9.58-12.94 5.695 0 9.576 5.563 9.576 12.94z" fill="#a6417e" fill-rule="evenodd"/></svg>