<svg xmlns="http://www.w3.org/2000/svg" viewBox="0 0 127.8 31.6"><path d="M7.2 27.9c1.3 2.4 3.8 3.8 6.5 3.7 5.4 0 10.1-4.2 10.1-11.2S19 10.2 14.4 10.2c-3.2-.1-6.1 2-7.1 5V0H0v31.2h6.7l.5-3.3zm.1-7.2c0-3.7 1.8-6.4 4.5-6.4s4.3 1.9 4.3 6.6c0 5-1.6 7.2-4.3 7.2-2.5 0-4.5-2.7-4.5-6.1v-1.3zm39.8 4.1l-2.6-1.1c-1.1 2.7-2.6 4.2-5.5 4.2-3 0-5.3-1.7-5.4-6.7h13.6c0-6.5-3.4-11.1-10-11.1-6.1 0-11.1 4.1-11.1 11.1 0 6.7 5 10.4 11 10.4 5.3 0 8.8-2.4 10-6.8zm-9.8-11.9c2.4 0 2.9 2.3 2.9 5.6h-6.4c.2-4.1 1.3-5.6 3.5-5.6zM58.4 0h-7.2v31.2h7.2V0zm24.7 24.8l-2.6-1.1c-1.1 2.7-2.6 4.2-5.5 4.2-3 0-5.3-1.7-5.4-6.7h13.6c0-6.5-3.4-11.1-10-11.1-6.1 0-11.1 4.1-11.1 11.1 0 6.7 5 10.4 11 10.4 5.3 0 8.8-2.4 10-6.8zm-9.8-11.9c2.4 0 2.9 2.3 2.9 5.6h-6.4c.2-4.1 1.3-5.6 3.5-5.6zm11.8 16.5v1.8h20v-3.4H94.2l10.5-15.5v-1.8H85.8v3.4h10L85.1 29.4zm35.5-8.2v1c0 2.8-1.5 5.2-3.7 5.2-1.2.1-2.3-.8-2.5-2V25c0-1.9 1.2-2.9 4-3.5l2.2-.3zm0-2.6l-3.4.6c-4.8.9-9.8 2.3-9.8 7 0 3.5 3 5.5 6.3 5.5 3.6 0 6.2-1.8 7-4.5l.4 4.1h6.6V18.8c0-5.8-3.3-8.5-10.2-8.5-5.9 0-8.8 2.6-8.8 5.7 0 1.3.6 2.6 1.7 3.4l3.4-1.7c-.6-.5-.9-1.2-.9-1.9 0-1.5 1.5-2.2 3.6-2.2 3 0 4.1 1.4 4.1 3.7v1.3z" fill="#fff162"/></svg>