<svg xmlns="http://www.w3.org/2000/svg" width="153" height="32" viewBox="0 0 152.688 31.625"><path d="M16.53 20.996c0 3.708-1.8 6.415-4.54 6.415-2.707 0-4.3-1.916-4.3-6.623 0-5.04 1.625-7.248 4.3-7.248 2.54 0 4.54 2.75 4.54 6.08v1.375zm0-7.3c-1.26-2.34-3.762-3.737-6.415-3.582-5.415 0-10.122 4.082-10.122 11.122 0 7 4.707 10.373 9.5 10.373a6.93 6.93 0 0 0 7.04-4.958l.167 4.54h7.075V.002H16.53v13.7zm32.03 11.122l-2.582-1.083c-1.083 2.708-2.624 4.208-5.457 4.208-2.957 0-5.3-1.708-5.415-6.75h13.62c0-6.5-3.416-11.08-10-11.08-6.08 0-11.122 4.124-11.122 11.122 0 6.665 5 10.373 11 10.373 5.207 0 8.706-2.458 9.955-6.8zm-9.872-11.9c2.416 0 2.916 2.332 2.875 5.623H35.2c.25-4.086 1.374-5.623 3.498-5.623zm35.7 8.8l-4.873-11.164h-8.04l10.08 20.912h2.166l9.8-20.912h-4.124zm20.947 9.9c6.207 0 11.372-4.25 11.372-10.748s-5.165-10.747-11.372-10.747-11.37 4.25-11.37 10.747 5.165 10.76 11.37 10.76zm0-18.746c2.666 0 3.708 2.125 3.708 8s-1.042 8-3.708 8-3.707-2.124-3.707-8 1.04-8 3.707-8zm26.407.292c2.75 0 3.583 1.8 3.583 3.25a3.31 3.31 0 0 1-.875 2.249l2.5 1.417c1.166-.855 1.85-2.22 1.833-3.666 0-3.583-2.666-6.3-8.08-6.3-6.373 0-11.62 4.207-11.62 11.205 0 6.582 4.956 10.3 10.663 10.3 5.082 0 8.5-2.458 9.8-6.8l-2.583-1.124c-1.124 2.707-2.707 4.25-5 4.25-3.083 0-5.332-2.3-5.332-7.373.001-4.25 1.957-7.415 5.124-7.415zM144.526.001h-3.915l-5.165 8.206h3.04l4.124-4 4.124 4h3.04zm8 24.827l-2.583-1.083c-1.083 2.708-2.624 4.208-5.457 4.208-2.957 0-5.3-1.708-5.415-6.75h13.62c0-6.5-3.415-11.08-10-11.08-6.08 0-11.12 4.124-11.12 11.122 0 6.665 5 10.373 11 10.373 5.204 0 8.704-2.458 9.953-6.8zm-9.874-11.9c2.416 0 2.916 2.332 2.874 5.623h-6.373c.25-4.086 1.374-5.623 3.5-5.623z" fill="#fff162" fill-rule="evenodd"/></svg>