<svg xmlns="http://www.w3.org/2000/svg" width="179" height="41" viewBox="0 0 178.813 40.157"><path d="M7.235 20.757c0-3.707 1.79-6.415 4.54-6.415 2.707 0 4.3 1.916 4.3 6.623 0 5.04-1.624 7.248-4.3 7.248-2.54 0-4.54-2.75-4.54-6.082v-1.374zm0 7.3a7.32 7.32 0 0 0 6.415 3.582c5.415 0 10.122-4.165 10.122-11.205 0-7-4.8-10.29-9.29-10.29a7.52 7.52 0 0 0-7.248 4.957l-.167-4.54h-7.08V40.17h7.248V28.044zm39.86-3.203L44.51 23.76c-1.083 2.708-2.624 4.207-5.456 4.207-2.957 0-5.3-1.708-5.415-6.748h13.62c0-6.5-3.416-11.08-10-11.08-6.08 0-11.122 4.124-11.122 11.122 0 6.665 5 10.372 11 10.372 5.208-.004 8.707-2.46 9.955-6.79zm-9.87-11.918c2.416 0 2.916 2.333 2.874 5.624h-6.373c.25-4.083 1.375-5.624 3.5-5.624zm21.117 2.958l-.166-5.332h-7.08v20.662h7.247v-6.87c0-5.665 3.29-10.664 5.915-10.664.523-.066 1.048.097 1.44.45a1.81 1.81 0 0 1 .601 1.384 3.63 3.63 0 0 1-.791 2l3.04 1.625a6.55 6.55 0 0 0 1.5-4c.068-1.346-.437-2.657-1.4-3.6s-2.264-1.458-3.6-1.4c-3.498-.003-5.664 2.538-6.706 5.745zm12.62-1.958h3l-.085 10.418c-.04 4.957 3.124 7.29 7.373 7.29 5.373 0 8.164-3.457 8.248-7.914l-2.916-.375c-.083 3-1.166 4.374-3.083 4.374-1.582 0-2.374-1.125-2.374-2.916V13.925h6.623l.208-3.374h-6.83V3.803l-7.164 3.04v3.707h-3v3.374zm21.41-7.332h7.33V.012h-7.33v6.582zm7.29 3.957h-7.247v20.662h7.247V10.55zm5.5 0v20.662h7.248v-10c0-3.832 1.583-6.124 3.666-6.124 2 0 2.915 1.375 2.915 3.5V31.21h7.248V17.383c0-3.957-2-7.248-6.79-7.248a7.29 7.29 0 0 0-7.04 4.957l-.167-4.54h-7.08zM131.443.012v31.2h7.25v-10c0-3.832 1.583-6.124 3.665-6.124 2 0 2.916 1.375 2.916 3.5V31.2h7.248V17.383c0-3.957-2-7.248-6.8-7.248a7.29 7.29 0 0 0-7.039 4.957V.012h-7.248zM167.43 31.63c6.207 0 11.372-4.248 11.372-10.747s-5.165-10.748-11.372-10.748-11.37 4.25-11.37 10.748 5.163 10.747 11.37 10.747zm0-18.745c2.666 0 3.707 2.124 3.707 8s-1.04 8-3.707 8-3.707-2.124-3.707-8 1.04-8 3.705-8z" fill="#fff162" fill-rule="evenodd"/></svg>